Coordinates
version=1
nRows=11
nColumns=40
inDegrees=yes

Units are S.I. units (second, meters, Newtons, ...)
Angles are in degrees.

endheader
time	pelvis_tilt	pelvis_list	pelvis_rotation	pelvis_tx	pelvis_ty	pelvis_tz	hip_flexion_r	hip_adduction_r	hip_rotation_r	knee_angle_r	knee_angle_r_beta	ankle_angle_r	subtalar_angle_r	mtp_angle_r	hip_flexion_l	hip_adduction_l	hip_rotation_l	knee_angle_l	knee_angle_l_beta	ankle_angle_l	subtalar_angle_l	mtp_angle_l	lumbar_extension	lumbar_bending	lumbar_rotation	arm_flex_r	arm_add_r	arm_rot_r	elbow_flex_r	pro_sup_r	wrist_flex_r	wrist_dev_r	arm_flex_l	arm_add_l	arm_rot_l	elbow_flex_l	pro_sup_l	wrist_flex_l	wrist_dev_l
     24.71500000	     -5.11573583	     -4.02358239	      2.39955601	      0.93089497	      0.92335675	      0.47931766	     -1.55705958	      0.07598654	    -17.56883794	     20.14765149	     20.14765149	     17.01603240	      1.03697282	     -4.13980210	     26.03775412	     -3.69424248	     -1.47415362	     25.60391353	     25.60391353	      7.99855623	    -16.68489282	      7.01363335	     -6.50064163	      4.31219071	      4.63000060	     29.18168758	    -16.07960542	    -12.18566557	     74.67939377	     44.80366638	      0.00000000	      0.00000000	     -5.74412853	     -7.16734853	      3.21908001	     24.16221059	     44.65108449	      0.00000000	      0.00000000
     24.72742857	     -5.14294136	     -3.98911025	      2.20326431	      0.93146335	      0.92488528	      0.47679015	     -0.76969015	     -0.61885797	    -17.28615221	     22.48948981	     22.48948981	     16.00154407	      0.32960470	     -5.72654202	     25.19532948	     -3.53280477	     -1.60624553	     25.14227758	     25.14227758	      8.41060119	    -16.63922285	      7.31417976	     -6.36777708	      4.41533080	      4.80008435	     27.38352346	    -16.03823251	    -12.24995455	     73.24791234	     44.85514645	      0.00000000	      0.00000000	     -4.73207893	     -7.19795798	      3.06288796	     24.90470600	     44.71021396	      0.00000000	      0.00000000
     24.73985714	     -5.14027057	     -3.96875965	      2.04950961	      0.93198339	      0.92629642	      0.47430324	     -0.09534155	     -1.20389292	    -16.81573723	     24.37298116	     24.37298116	     12.67721198	     -1.75947772	    -13.19746778	     24.36660258	     -3.38726794	     -1.77174813	     24.76553385	     24.76553385	      9.08491599	    -16.48511168	      8.16318701	     -6.26480446	      4.53972196	      4.50859133	     26.13021241	    -15.46992667	    -12.51118050	     70.71527767	     44.99486211	      0.00000000	      0.00000000	     -4.22435038	     -7.32662550	      2.29985892	     26.61220689	     44.93532107	      0.00000000	      0.00000000
     24.75228571	     -5.11765515	     -3.92318677	      1.85878983	      0.93235271	      0.92767743	      0.47180647	      1.07110425	     -2.01418425	    -16.41880755	     27.44842621	     27.44842621	     11.57857935	     -2.66435360	    -14.00485555	     23.41534105	     -3.24582119	     -2.08014034	     24.17663753	     24.17663753	      9.39294317	    -16.23296187	      8.07284993	     -6.27367796	      4.66030244	      4.61337250	     24.27736155	    -15.41954068	    -12.35521363	     69.32046920	     45.03349145	      0.00000000	      0.00000000	     -3.11380466	     -7.42095338	      2.15708763	     27.44651935	     44.98372489	      0.00000000	      0.00000000
     24.76471429	     -5.09588095	     -3.86343427	      1.68169366	      0.93247218	      0.92881497	      0.46938263	      2.48410080	     -2.86154962	    -15.90133972	     30.87774496	     30.87774496	     10.19002249	     -3.85941231	    -14.92224014	     22.53226925	     -3.09496579	     -2.39429416	     23.67170028	     23.67170028	      9.63878806	    -15.99140567	      7.95922747	     -6.29770394	      4.74713179	      4.69048314	     22.46733421	    -15.33737981	    -12.28736839	     67.69175949	     45.08210206	      0.00000000	      0.00000000	     -1.95746618	     -7.55242578	      1.99458370	     28.50166904	     45.03174428	      0.00000000	      0.00000000
     24.77714286	     -5.13775455	     -3.97559228	      1.51134188	      0.93243236	      0.92963993	      0.46720412	      4.00254743	     -3.29949506	    -14.88691514	     34.01037142	     34.01037142	      7.19109280	     -6.83981378	    -18.96678513	     21.76917324	     -3.13081344	     -2.61980528	     23.19919234	     23.19919234	      9.73747214	    -15.83949706	      7.28778954	     -6.17931903	      4.97059345	      4.27330290	     21.69151074	    -14.60113222	    -12.71655202	     63.50245505	     45.25682972	      0.00000000	      0.00000000	     -1.87016401	     -7.96477702	      1.41262228	     31.84688578	     45.15141004	      0.00000000	      0.00000000
     24.78957143	     -5.13972785	     -3.88824742	      1.33680583	      0.93216421	      0.93021138	      0.46489659	      5.83137585	     -4.17909703	    -14.24030004	     37.91867215	     37.91867215	      5.48751842	     -8.06580801	    -19.29463741	     21.02072264	     -2.96300669	     -2.97522706	     22.83500981	     22.83500981	     10.03976818	    -15.57340360	      7.08642577	     -6.22797958	      5.03278714	      4.35062179	     19.83159232	    -14.54023218	    -12.53647177	     61.87554255	     45.30035371	      0.00000000	      0.00000000	     -0.61195598	     -8.15302963	      1.23102284	     32.98489874	     45.20269585	      0.00000000	      0.00000000
     24.80200000	     -5.09837694	     -3.75944825	      1.18034897	      0.93166110	      0.93058058	      0.46271222	      7.76485118	     -4.99775741	    -13.37527396	     41.89691431	     41.89691431	      3.63651951	     -9.55840032	    -19.24519527	     20.29809726	     -2.75632469	     -3.30707549	     22.57422658	     22.57422658	     10.38047978	    -15.29323293	      6.81220936	     -6.38335850	      5.02356583	      4.42935833	     18.04411869	    -14.41438919	    -12.45367822	     60.06163957	     45.35353312	      0.00000000	      0.00000000	      0.72858572	     -8.41423165	      1.04334906	     34.32436954	     45.25320608	      0.00000000	      0.00000000
     24.81442857	     -5.13036574	     -3.68603118	      0.98596999	      0.93100630	      0.93064347	      0.46080190	      9.89639416	     -5.58360441	    -12.26699114	     45.83538467	     45.83538467	      1.73931692	    -11.30826768	    -18.68306487	     19.69448255	     -2.63368948	     -3.64895584	     22.37083671	     22.37083671	     10.81207191	    -15.01162281	      6.40414976	     -6.40792305	      5.03197805	      4.65832700	     16.25184202	    -14.34148889	    -12.46729538	     57.75388011	     45.42805832	      0.00000000	      0.00000000	      2.02116729	     -8.68771717	      0.83599208	     36.06707603	     45.30640968	      0.00000000	      0.00000000
     24.82685714	     -4.99632568	     -3.62443322	      0.89130262	      0.93017131	      0.93082822	      0.45893766	     11.82609214	     -6.12730700	    -11.38536768	     49.55877829	     49.55877829	     -0.04152293	    -12.64784203	    -17.89839210	     19.01030036	     -2.52211659	     -3.90855185	     22.28697001	     22.28697001	     11.12062577	    -14.70625559	      6.05714593	     -6.71952289	      5.07865157	      4.61069352	     14.57084974	    -14.03920513	    -12.42872073	     55.74223567	     45.48987168	      0.00000000	      0.00000000	      3.42836934	     -9.03569078	      0.66249900	     37.64170842	     45.35478136	      0.00000000	      0.00000000
     24.83928571	     -4.98395045	     -3.74573183	      0.70454615	      0.92927181	      0.93072105	      0.45753806	     14.12029833	     -6.19410778	    -10.15486807	     53.48510513	     53.48510513	     -0.10391890	    -13.15316465	    -12.12331489	     18.45987090	     -2.72132346	     -4.52671381	     22.20301607	     22.20301607	     11.28562354	    -14.08089111	      4.46990424	     -6.74360073	      5.24264283	      3.74061079	     15.24588341	    -12.99146136	    -13.16078456	     48.41627988	     45.78606438	      0.00000000	      0.00000000	      2.69711456	    -10.09458534	      0.72219689	     43.38528812	     45.40737820	      0.00000000	      0.00000000
